<svg xmlns="http://www.w3.org/2000/svg"><title>Icons/Product/Blog</title><path fill-rule="evenodd" clip-rule="evenodd" d="M18 3C19.5977 3 20.9037 4.24892 20.9949 5.82373L21 6V18L20.9949 18.1763C20.907 19.6928 19.6928 20.907 18.1763 20.9949L18 21H6C4.40232 21 3.09634 19.7511 3.00509 18.1763L3 18V6L3.00509 5.82373C3.09296 4.30725 4.30725 3.09296 5.82373 3.00509L6 3H18ZM6 4.99685L5.101 5.001L6 5L5.88338 5.00673C5.46255 5.05561 5.12142 5.36575 5.02641 5.77071L5.00673 5.88338L5 6V18C5 18.5128 5.38604 18.9355 5.88338 18.9933L6 19H18L18.1166 18.9933C18.614 18.9355 19 18.5128 19 18V6L18.9933 5.88338C18.94 5.4243 18.5757 5.06005 18.1166 5.00673L18 5H6V4.99685ZM14 15C14.5523 15 15 15.4477 15 16C15 16.5523 14.5523 17 14 17H8C7.44772 17 7 16.5523 7 16C7 15.4477 7.44772 15 8 15H14ZM16 11C16.5523 11 17 11.4477 17 12C17 12.5523 16.5523 13 16 13H8C7.44772 13 7 12.5523 7 12C7 11.4477 7.44772 11 8 11H16ZM16 7C16.5523 7 17 7.44772 17 8C17 8.55228 16.5523 9 16 9H8C7.44772 9 7 8.55228 7 8C7 7.44772 7.44772 7 8 7H16Z" fill="#0B0A0A"></path></svg>