<svg xmlns="http://www.w3.org/2000/svg"><title>Icons/Social-Media/Discord</title><path d="M7.39991 12.651C7.39991 13.6681 8.13327 14.4947 9.02095 14.4947C9.92562 14.4947 10.625 13.6681 10.6406 12.651C10.6562 11.634 9.92845 10.8001 9.01812 10.8001C8.10779 10.8001 7.39991 11.634 7.39991 12.651Z"></path><path d="M13.3815 12.651C13.3815 13.6681 14.112 14.4947 15.0011 14.4947C15.9058 14.4947 16.6038 13.6681 16.6193 12.651C16.6349 11.634 15.9129 10.8001 15.0011 10.8001C14.0894 10.8001 13.3815 11.634 13.3815 12.651Z"></path><path fill-rule="evenodd" clip-rule="evenodd" d="M10.3397 4.52164C10.1344 4.14491 9.71174 3.94108 9.28916 4.01502C7.91819 4.25491 6.58399 4.67696 5.32021 5.27022C5.15336 5.34854 5.0114 5.47146 4.91001 5.6254C2.42547 9.39771 1.74282 13.1073 2.08073 16.7461C2.10667 17.0254 2.24873 17.281 2.47226 17.4505C3.94038 18.5636 5.58471 19.411 7.33402 19.955C7.74372 20.0823 8.18902 19.9342 8.44074 19.5868C8.71954 19.202 8.97595 18.801 9.20876 18.386L14.7882 18.3872C15.0211 18.8022 15.2778 19.2031 15.557 19.5877C15.8086 19.9341 16.2528 20.0819 16.6618 19.9554C18.4131 19.4135 20.0592 18.5662 21.528 17.4517C21.751 17.2825 21.8929 17.0274 21.9191 16.7486C22.3159 12.526 21.235 8.85169 19.0798 5.61795C18.9787 5.4662 18.838 5.345 18.673 5.26745C17.4099 4.67402 16.076 4.25278 14.7053 4.01479C14.2831 3.9415 13.8612 4.14526 13.6562 4.52144C13.5148 4.78071 13.409 5.14955 13.3396 5.40393C12.4469 5.32085 11.5487 5.32085 10.656 5.40394C10.5866 5.14958 10.4809 4.78083 10.3397 4.52164ZM14.9815 6.88492C15.0649 6.68476 15.1451 6.39192 15.2073 6.15972C16.0159 6.35376 16.8064 6.62211 17.5693 6.96181C19.3111 9.66688 20.1955 12.673 19.9636 16.1194C18.9733 16.8225 17.8992 17.3899 16.7685 17.8079C16.5944 17.5281 16.4336 17.2396 16.2867 16.9432C16.1179 16.6028 15.7709 16.3874 15.3909 16.3874L8.60661 16.3859C8.22663 16.3858 7.87943 16.6011 7.71057 16.9415C7.56349 17.238 7.40261 17.5268 7.22854 17.8068C6.09923 17.3877 5.02631 16.8203 4.03671 16.118C3.83571 13.1175 4.43511 10.0893 6.42597 6.96371C7.18926 6.6242 7.97997 6.35557 8.78861 6.16071C8.85078 6.39279 8.93089 6.68515 9.01433 6.88513C9.19147 7.30968 9.63541 7.55861 10.09 7.48831C11.3548 7.29272 12.6409 7.29272 13.9057 7.48831C14.3604 7.55862 14.8044 7.30959 14.9815 6.88492Z"></path></svg>