<svg xmlns="http://www.w3.org/2000/svg"><title>Icons/Social-Media/Facebook</title><path fill-rule="evenodd" clip-rule="evenodd" d="M10.4128 3.64535C11.3586 2.60502 12.6628 2 14.0455 2H16.5C17.0523 2 17.5 2.44772 17.5 3V6.6C17.5 7.15228 17.0523 7.6 16.5 7.6H14.2273V9.2H16.5C16.8042 9.2 17.0918 9.33843 17.2815 9.57615C17.4713 9.81387 17.5425 10.125 17.4751 10.4216L16.657 14.0216C16.5535 14.4769 16.1487 14.8 15.6818 14.8H14.2273V21C14.2273 21.5523 13.7796 22 13.2273 22H11.5909H9.95455C9.40226 22 8.95455 21.5523 8.95455 21V14.8H7.5C6.94772 14.8 6.5 14.3523 6.5 13.8V10.2C6.5 9.64772 6.94772 9.2 7.5 9.2H8.95455V7.5C8.95455 6.07044 9.46993 4.68251 10.4128 3.64535ZM14.0455 4C13.2581 4 12.4813 4.34319 11.8927 4.99069C11.3012 5.64136 10.9545 6.54261 10.9545 7.5V10.2C10.9545 10.7523 10.5068 11.2 9.95455 11.2H8.5V12.8H9.95455C10.5068 12.8 10.9545 13.2477 10.9545 13.8V20H12.2273V13.8C12.2273 13.2477 12.675 12.8 13.2273 12.8H14.8836L15.2472 11.2H13.2273C12.675 11.2 12.2273 10.7523 12.2273 10.2V7.5C12.2273 7.02522 12.3979 6.55296 12.727 6.19093C13.059 5.82573 13.5308 5.6 14.0455 5.6H15.5V4H14.0455Z"></path></svg>