<svg xmlns="http://www.w3.org/2000/svg"><title>Icons/GUI/Idea</title><path d="M8 .97a7.5 7.5 0 015.161 12.942l-.137.269-.252.5-.114.232-.205.43-.174.381c-.053.12-.101.231-.144.335-.167.406-.383.749-.648 1.03l-.002 3.048c0 .46-.373.834-.833.834H5.357a.833.833 0 01-.833-.834L4.522 17a4.116 4.116 0 01-.434-.747l-.094-.22c-.133-.33-.325-.731-.574-1.204l-.268-.498a36 36 0 00-.15-.266A7.5 7.5 0 018 .97zm1.818 16.683H6.19v1.65h3.628v-1.65zM8 2.637a5.833 5.833 0 00-4.058 10.024l.172.16.206.185.135.24c.438.777.77 1.428 1.002 1.964l.082.196c.083.205.168.371.254.504l.042.06h4.414l.074-.079c.077-.091.146-.2.21-.33l.061-.138.156-.363.186-.408.217-.454.247-.5.409-.8.205-.195A5.833 5.833 0 008 2.637zm2.508 6.705c.577 0 .979.572.784 1.115l-.796 2.243-.111.326a6.483 6.483 0 00-.29 1.402.833.833 0 01-1.657-.171 8.131 8.131 0 01.368-1.764l.518-1.484H6.677l.508 1.481c.177.519.31 1.096.402 1.734a.833.833 0 11-1.65.237 7.97 7.97 0 00-.33-1.433l-.887-2.58a.834.834 0 01.689-1.1l.099-.006h5z" fill="currentColor" fill-rule="evenodd"></path></svg>