<svg xmlns="http://www.w3.org/2000/svg"><title>Icons/Social-Media/Instagram</title><path fill-rule="evenodd" clip-rule="evenodd" d="M11.4 3.00001H12.6L12.7253 3.00001C14.1262 2.99989 15.372 2.99978 16.3778 3.13501C17.471 3.28198 18.5748 3.62089 19.477 4.52306C20.3791 5.42523 20.718 6.52907 20.865 7.62225C21.0002 8.62802 21.0001 9.87384 21 11.2748L21 11.4V12.6L21 12.7253C21.0001 14.1262 21.0002 15.372 20.865 16.3778C20.718 17.471 20.3791 18.5748 19.477 19.477C18.5748 20.3791 17.471 20.718 16.3778 20.865C15.372 21.0002 14.1262 21.0001 12.7253 21L12.6 21H11.4L11.2748 21C9.87384 21.0001 8.62802 21.0002 7.62225 20.865C6.52907 20.718 5.42523 20.3791 4.52306 19.477C3.62089 18.5748 3.28198 17.471 3.13501 16.3778C2.99978 15.372 2.99989 14.1262 3.00001 12.7253L3.00001 12.6V11.4L3.00001 11.2748C2.99989 9.87384 2.99978 8.62802 3.13501 7.62225C3.28198 6.52907 3.62089 5.42523 4.52306 4.52306C5.42523 3.62089 6.52907 3.28198 7.62225 3.13501C8.62802 2.99978 9.87384 2.99989 11.2748 3.00001L11.4 3.00001ZM5.93727 5.93727C5.00001 6.87453 5.00001 8.38303 5.00001 11.4V12.6C5.00001 15.617 5.00001 17.1255 5.93727 18.0628C6.87453 19 8.38303 19 11.4 19H12.6C15.617 19 17.1255 19 18.0628 18.0628C19 17.1255 19 15.617 19 12.6V11.4C19 8.38303 19 6.87453 18.0628 5.93727C17.1255 5.00001 15.617 5.00001 12.6 5.00001H11.4C8.38303 5.00001 6.87453 5.00001 5.93727 5.93727ZM12 14C13.1046 14 14 13.1046 14 12C14 10.8954 13.1046 10 12 10C10.8954 10 10 10.8954 10 12C10 13.1046 10.8954 14 12 14ZM12 16C14.2092 16 16 14.2092 16 12C16 9.79088 14.2092 8.00001 12 8.00001C9.79088 8.00001 8.00001 9.79088 8.00001 12C8.00001 14.2092 9.79088 16 12 16ZM16.9101 8.76001C17.3795 8.76001 17.7601 8.37945 17.7601 7.91001C17.7601 7.44057 17.3795 7.06001 16.9101 7.06001C16.4406 7.06001 16.0601 7.44057 16.0601 7.91001C16.0601 8.37945 16.4406 8.76001 16.9101 8.76001Z"></path></svg>