<svg xmlns="http://www.w3.org/2000/svg"><title>Icons/GUI/Lending</title><path fill-rule="evenodd" clip-rule="evenodd" d="M10.9826 0.198295L11.1974 0.276187L11.385 0.218226C12.0136 0.0433401 12.709 0.0599433 13.3356 0.280217L13.5213 0.352421C14.7969 0.897242 15.3255 2.15326 14.7602 3.21703L14.6763 3.36081L13.5591 5.11234L16.8388 6.96507C18.1468 7.70412 19.0201 8.85042 19.2604 10.1295L19.298 10.3708L19.9765 15.846C19.9921 15.9726 20 16.0997 20 16.2269C20 18.2476 18.06 19.8973 15.6219 19.9954L15.3919 20H4.60846C4.4531 20 4.29785 19.9936 4.14329 19.9807C1.68803 19.7767 -0.120607 18.0299 0.00628539 16.0339L0.0238914 15.846L0.733835 10.117C0.87138 9.007 1.48455 7.9756 2.45938 7.20342L2.67376 7.04199L5.29331 5.16705L4.53936 3.81034C4.15199 3.11315 4.29279 2.30075 4.88611 1.72097L5.02015 1.60042C5.58296 1.13415 6.35883 0.94499 7.09447 1.03417L7.11697 1.03741L7.15643 0.996433C8.06665 0.0901398 9.61443 -0.253819 10.9826 0.198295ZM8.75447 2.4735L8.71679 2.54178L8.68706 2.61239C8.4419 3.29586 7.34134 3.52305 6.69162 3.02431C6.64583 2.98917 6.57202 2.9895 6.52676 3.02507C6.5041 3.04287 6.49244 3.06669 6.49313 3.09072L6.50357 3.1262L7.33706 4.54881L8.8693 4.5492C9.48345 4.5492 9.98962 4.90826 10.0588 5.37083L10.0669 5.4793C10.0669 5.9563 9.60455 6.34942 9.00896 6.40315L8.8693 6.40941L7.01492 6.40902L3.96037 8.48366C3.33712 8.90676 2.92306 9.48261 2.78386 10.1124L2.75042 10.3029L2.01242 15.952C1.87889 16.9741 2.83749 17.8868 4.15352 17.9905L4.27425 17.9976L4.39529 18H15.6049C16.9277 18 18 17.1672 18 16.1398L17.9969 16.0458L17.9878 15.952L17.2825 10.5532C17.1843 9.80201 16.699 9.11662 15.9432 8.65023L15.7486 8.53828L11.4694 6.24483C11.0134 6.00041 10.8378 5.54914 11.0271 5.155L11.0878 5.04913L12.7375 2.59291C12.8489 2.42713 12.7661 2.22264 12.5526 2.13616C12.3961 2.07273 12.2057 2.08893 12.0705 2.17719C11.7498 2.38664 11.3149 2.44884 10.9239 2.34837L10.7797 2.30304L10.1929 2.08325C9.6569 1.88252 9.01292 2.05724 8.75447 2.4735ZM10.42 8.4V9.02L10.6522 9.0434C11.2567 9.12076 11.7426 9.31796 12.11 9.635C12.5233 9.99167 12.7467 10.4967 12.78 11.15H11.21L11.1841 11.0156C11.0887 10.6292 10.834 10.394 10.42 10.31V11.77L10.6942 11.8367C11.404 12.0208 11.9426 12.2535 12.31 12.535C12.7233 12.8517 12.93 13.33 12.93 13.97C12.93 14.6233 12.6967 15.14 12.23 15.52C11.7633 15.9 11.16 16.1067 10.42 16.14V17.03H9.81V16.13L9.5656 16.1088C8.8492 16.0296 8.284 15.81 7.87 15.45C7.41 15.05 7.17333 14.4967 7.16 13.79H8.82L8.84215 13.9331C8.94349 14.4382 9.26611 14.7306 9.81 14.81V13.19L9.6152 13.1396C9.36773 13.0745 9.16933 13.018 9.02 12.97C8.83333 12.91 8.61667 12.8217 8.37 12.705C8.12333 12.5883 7.93667 12.4633 7.81 12.33C7.68333 12.1967 7.575 12.0183 7.485 11.795C7.395 11.5717 7.35 11.3167 7.35 11.03C7.35 10.41 7.57667 9.92667 8.03 9.58C8.48333 9.23333 9.07667 9.04333 9.81 9.01V8.4H10.42ZM10.42 13.37V14.81C10.6667 14.7767 10.8683 14.7017 11.025 14.585C11.1817 14.4683 11.26 14.3067 11.26 14.1C11.26 13.9067 11.195 13.7583 11.065 13.655C10.935 13.5517 10.72 13.4567 10.42 13.37ZM9.81 10.29L9.661 10.3112C9.47167 10.3464 9.31967 10.4093 9.205 10.5C9.06167 10.6133 8.99 10.7567 8.99 10.93C8.99 11.11 9.05167 11.2467 9.175 11.34C9.29833 11.4333 9.51 11.5233 9.81 11.61V10.29Z" fill="#171717"></path></svg>