<svg xmlns="http://www.w3.org/2000/svg"><title>Icons/Product/News</title><path fill-rule="evenodd" clip-rule="evenodd" d="M19 2C20.6569 2 22 3.34315 22 5V19L21.9949 19.1763C21.907 20.6928 20.6928 21.907 19.1763 21.9949L19 22H5C3.34315 22 2 20.6569 2 19V15C2 13.4023 3.24892 12.0963 4.82373 12.0051L5 12H6V5L6.00509 4.82373C6.09296 3.30725 7.30725 2.09296 8.82373 2.00509L9 2H19ZM4.999 13.997L4.155 14H5L4.88338 14.0067C4.46255 14.0556 4.12142 14.3657 4.02641 14.7707L4.00673 14.8834L4 15V19L4.00673 19.1166C4.06005 19.5757 4.4243 19.94 4.88338 19.9933L5 20H4.101L5 20.0032V20L5.11662 19.9933C5.53745 19.9444 5.87858 19.6343 5.97359 19.2293L5.99327 19.1166L6 19V14H5L4.999 13.997ZM9 3.99685L8.155 4H9L8.88338 4.00673C8.46255 4.05561 8.12142 4.36575 8.02641 4.77071L8.00673 4.88338L8 5V19L7.99491 19.1763C7.97826 19.4635 7.9212 19.7399 7.82933 19.9999L19 20L19.1166 19.9933C19.5757 19.94 19.94 19.5757 19.9933 19.1166L20 19V5L19.9933 4.88338C19.94 4.4243 19.5757 4.06005 19.1166 4.00673L19 4H9V3.99685ZM14.3333 10C14.8856 10 15.3333 10.4477 15.3333 11C15.3333 11.5523 14.8856 12 14.3333 12H11C10.4477 12 10 11.5523 10 11C10 10.4477 10.4477 10 11 10H14.3333ZM17 6C17.5523 6 18 6.44772 18 7C18 7.55228 17.5523 8 17 8H11C10.4477 8 10 7.55228 10 7C10 6.44772 10.4477 6 11 6H17Z" fill="currentColor"></path></svg>