<svg xmlns="http://www.w3.org/2000/svg"><title>Icons/Product/PressKit</title><path fill-rule="evenodd" clip-rule="evenodd" d="M19 5H5L5 16.15L8.40093 12.5877C8.94605 12.0323 9.83958 12.028 10.39 12.5782L11.1989 13.3869L16.0101 8.57574C16.5568 8.029 17.4432 8.029 17.99 8.57574L19 9.58579V5ZM19 12.4142L17 10.4142L12.6133 14.801L16.8134 19H19V12.4142ZM5 19V19.01L5.0096 19H13.9846L9.40422 14.4208L5.0096 19H5ZM5 3C3.89543 3 3 3.89543 3 5V19C3 20.1046 3.89543 21 5 21H19C20.1046 21 21 20.1046 21 19V5C21 3.89543 20.1046 3 19 3H5ZM8.5 10C9.32843 10 10 9.32843 10 8.5C10 7.67157 9.32843 7 8.5 7C7.67157 7 7 7.67157 7 8.5C7 9.32843 7.67157 10 8.5 10Z" fill="#0B0A0A"></path></svg>