<svg xmlns="http://www.w3.org/2000/svg"><title>Icons/GUI/Pricetag</title><g fill="none" fill-rule="evenodd"><path d="M14.393.708l1.05.002 1.182.011.964.023.474.02.509.03.202.02.167.02.132.022c.096.019.155.04.178.063.026.026.049.099.067.219l.021.166.017.21.014.256.013.468.005.368-.001.777-.02 1.303-.033 1.24-.075 2.189-.031.817c-.017.419-.191.815-.487 1.112l-8.735 8.735c-.651.65-1.707.65-2.358 0l-6.481-6.482a1.667 1.667 0 010-2.357l8.716-8.717A1.667 1.667 0 0111.04.735l2.198-.022 1.155-.005zm.853 1.668h-1.219l-1.612.01-1.353.016-8.717 8.717L8.827 17.6l8.735-8.735.046-1.2.07-2.104.028-1.182.015-1.226v-.542l-.003-.194-.512-.017-.755-.014-1.205-.01zm-.663 1.345a1.667 1.667 0 110 3.333 1.667 1.667 0 010-3.333z" fill="#171717"></path></g></svg>