<svg xmlns="http://www.w3.org/2000/svg"><title>Icons/GUI/Pricechart</title><path d="M1.5.637c.46 0 .833.373.833.834v13.333l.006.097c.048.415.4.736.828.736H16.5l.097.006a.833.833 0 01-.097 1.66H3.167L3.02 17.3a2.5 2.5 0 01-2.353-2.496V1.47l.005-.098A.833.833 0 011.5.637zm15 1.667c.427 0 .78.322.828.736l.005.097v4.167a.833.833 0 01-1.66.097l-.006-.097-.001-2.027-5.216 6.25c-.478.573-1.393.273-1.468-.439l-.005-.095v-1.68L4.64 14.504a.833.833 0 01-1.09.167l-.084-.062a.833.833 0 01-.168-1.09l.062-.084 5.81-6.954c.48-.573 1.393-.273 1.469.439l.005.095v1.678l3.94-4.724h-2.25a.833.833 0 01-.828-.736l-.006-.097c0-.427.322-.78.736-.827l.097-.006H16.5z" fill="#171717" fill-rule="evenodd"></path></svg>