<svg xmlns="http://www.w3.org/2000/svg"><title>Icons/GUI/Safebox</title><g fill="#171717" fill-rule="evenodd"><path d="M15.5.75a2.75 2.75 0 0 1 2.75 2.75v11a2.75 2.75 0 0 1-2.75 2.75h-.464l-.001.033a1 1 0 0 1-.993.884h-.75a1 1 0 0 1-.997-.916l-4.592-.001-.001.033a1 1 0 0 1-.994.884h-.75a1 1 0 0 1-.996-.916L4.5 17.25a2.75 2.75 0 0 1-2.75-2.75v-.458a.917.917 0 0 1-.917-.917v-.917c0-.506.41-.916.917-.916V6.708a.917.917 0 0 1-.917-.916v-.917c0-.506.41-.917.917-.917V3.5A2.75 2.75 0 0 1 4.5.75h11Zm0 1.833h-11a.917.917 0 0 0-.91.81l-.007.107v.458c.507 0 .917.41.917.917v.917c0 .506-.41.916-.917.916v4.584c.507 0 .917.41.917.916v.917c0 .506-.41.917-.917.917v.458c0 .47.354.858.81.91l.107.007h11c.47 0 .858-.354.91-.81l.007-.107v-11a.917.917 0 0 0-.81-.91l-.107-.007Z"></path><path d="M10 4.417a4.583 4.583 0 1 1 0 9.166 4.583 4.583 0 0 1 0-9.166Zm0 1.833a2.75 2.75 0 1 0 0 5.5 2.75 2.75 0 0 0 0-5.5Z"></path></g></svg>