<svg xmlns="http://www.w3.org/2000/svg"><title>Icons/GUI/Support</title><path d="M10 .97c4.145 0 7.517 3.28 7.517 7.312v.049h.05c1.266 0 2.306.96 2.39 2.17l.005.16v3.395c0 1.15-.86 2.107-1.987 2.296-.336 1.518-1.727 2.66-3.388 2.66l-1.385.002a2.551 2.551 0 01-.65 1.126 2.836 2.836 0 01-2.017.83c-1.545 0-2.803-1.211-2.803-2.7 0-1.49 1.246-2.702 2.777-2.702 1.267 0 2.338.829 2.67 1.958h1.408c.796 0 1.481-.47 1.778-1.14h-.683a.754.754 0 01-.764-.744V9.075c0-.411.342-.744.764-.744h.306v-.05c0-3.138-2.566-5.704-5.764-5.82L10 2.459c-3.302 0-5.988 2.612-5.988 5.824v.049h.306c.387 0 .707.28.758.643l.006.1v6.568c0 .41-.342.744-.764.744H2.433c-1.321 0-2.395-1.045-2.395-2.33v-3.395c0-1.285 1.074-2.33 2.395-2.33h.05v-.05c0-3.95 3.239-7.179 7.27-7.307zm.51 16.085c-.689 0-1.249.545-1.249 1.214 0 .658.584 1.214 1.274 1.214.348 0 .68-.135.912-.37.215-.22.326-.508.312-.81v-.034c0-.67-.56-1.214-1.25-1.214zM3.554 9.818H2.433c-.486 0-.867.37-.867.843v3.395c0 .473.38.843.867.843h1.12v-5.08zm14.013 0h-1.12v5.08h1.12c.486 0 .867-.37.867-.842v-3.395c0-.473-.38-.843-.867-.843z" fill="#171717" fill-rule="evenodd"></path></svg>