<svg xmlns="http://www.w3.org/2000/svg"><title>Icons/Social-Media/Telegram</title><path fill-rule="evenodd" clip-rule="evenodd" d="M4.72439 9.32029C8.59337 7.6347 11.1913 6.51556 12.5031 5.96995C14.3472 5.20292 15.5078 4.73292 16.2763 4.45406C17.0103 4.1877 17.5995 4.01115 18.2097 4.0004C18.4224 3.99665 18.6802 4.01869 18.9494 4.08301C19.2059 4.14428 19.6241 4.2794 20.0217 4.60207C20.7405 5.18531 20.8835 5.95031 20.9227 6.17882C20.9599 6.3966 21.0038 6.81841 20.9646 7.23057C20.7543 9.44074 19.8693 14.6405 19.4289 16.9948C19.2064 18.1845 18.5248 19.8209 16.7351 19.9856C15.7579 20.0756 14.9857 19.7288 14.4735 19.4279C14.2231 19.2808 13.9934 19.1194 13.8189 18.9954L13.7195 18.9247C13.576 18.8224 13.4638 18.7425 13.3432 18.6634C12.7408 18.2686 12.2696 17.9483 11.8132 17.6375L11.7553 17.5981C11.3197 17.3014 10.895 17.0122 10.3635 16.662C9.93004 16.3763 9.4019 15.9552 9.07519 15.3295C9.04348 15.2688 9.01451 15.2078 8.98818 15.1467C8.66612 15.2304 8.32714 15.2761 7.97382 15.2685C7.49298 15.2581 6.95635 15.1394 6.57103 15.0428C6.13928 14.9345 5.69392 14.8 5.32614 14.6805C5.27902 14.6652 5.22036 14.6469 5.15334 14.626C4.84753 14.5308 4.36775 14.3813 4.01731 14.2115C3.77918 14.0962 3.37207 13.8716 3.0355 13.4579C2.63525 12.966 2.43452 12.3284 2.51909 11.6538C2.63664 10.7161 3.2683 10.1654 3.58168 9.93268C3.93718 9.66866 4.34612 9.47247 4.72439 9.32029ZM6.23866 12.8717L6.22184 12.8665L6.16466 12.8487C6.08919 12.8251 6.01552 12.8016 5.94441 12.7785C5.84443 12.746 5.74691 12.7153 5.65278 12.6857C4.96083 12.4681 4.45269 12.3083 4.50356 11.9026C4.53366 11.6625 4.8643 11.4169 5.49547 11.1659L6.33055 10.8023C9.63561 9.36402 11.9055 8.38696 13.1404 7.87111L13.2712 7.81659C13.7984 7.59731 14.2661 7.40382 14.6821 7.23321C14.8863 7.14944 15.0781 7.07118 15.2583 6.99809C17.2886 6.17453 17.8499 6.00705 18.2449 6.00009C18.3552 5.99815 18.6018 6.02548 18.7616 6.15511C18.8964 6.26456 18.9336 6.41242 18.9513 6.51619C18.9691 6.61997 18.9912 6.85637 18.9736 7.04108C18.773 9.1494 17.9047 14.2657 17.463 16.6271C17.2761 17.6262 16.9081 17.9613 16.5518 17.9941C15.9386 18.0505 15.4423 17.6967 14.8899 17.3028C14.7447 17.1993 14.5957 17.0931 14.4396 16.9908C13.827 16.5892 13.3536 16.2668 12.8789 15.9435C12.4442 15.6475 12.0085 15.3508 11.4641 14.992C11.0558 14.7229 10.8562 14.4915 10.7975 14.2769L14.1001 11.8C14.5419 11.4686 14.6314 10.8418 14.3001 10.4C13.9687 9.95817 13.3419 9.86863 12.9001 10.2L10.0333 12.3501C9.84824 12.4748 9.65814 12.6031 9.46297 12.7348C9.32233 12.8314 9.18518 12.9149 9.05154 12.9853C8.67956 13.1812 8.33472 13.2758 8.01702 13.2689C7.65072 13.261 7.02411 13.1059 6.44452 12.934C6.37505 12.9134 6.30625 12.8926 6.23866 12.8717Z"></path></svg>