<svg xmlns="http://www.w3.org/2000/svg"><title>Icons/Social-Media/Twitter</title><path fill-rule="evenodd" clip-rule="evenodd" d="M13.9745 4.29552C14.8348 3.96714 15.7753 3.91091 16.6686 4.13444C17.3265 4.29905 17.9355 4.60952 18.4521 5.03926C18.7165 4.92127 19.0138 4.77321 19.3014 4.62142C19.5421 4.49441 19.7573 4.37488 19.9124 4.28706C19.9898 4.24325 20.0518 4.20759 20.094 4.18315L20.1417 4.15536L20.1533 4.14854L20.1559 4.14703C20.5241 3.92958 20.9902 3.97008 21.3151 4.24816C21.64 4.52627 21.7521 4.98019 21.5939 5.37755L21.1294 5.1927L20.6648 5.00785C21.5939 5.37755 21.5939 5.37755 21.5939 5.37755L21.5935 5.37866L21.5928 5.38054L21.5904 5.38652L21.582 5.4072C21.5749 5.42476 21.5647 5.44972 21.5516 5.48127C21.5255 5.54432 21.4879 5.63389 21.4403 5.74329C21.3456 5.96141 21.2102 6.26165 21.0478 6.58937C20.812 7.06484 20.4772 7.68685 20.0915 8.18626C20.0999 8.29625 20.1044 8.40719 20.1044 8.51883C20.1044 13.355 17.7719 16.9235 14.4053 18.7154C11.063 20.4944 6.80184 20.4697 3.01434 18.3655C2.60953 18.1406 2.41208 17.6672 2.53713 17.2213C2.66218 16.7754 3.077 16.4737 3.53973 16.4921C4.68422 16.5377 5.8184 16.3392 6.86949 15.9177C5.84911 15.2268 5.09046 14.4262 4.54475 13.5645C3.73687 12.2889 3.43355 10.9399 3.37876 9.73457C3.32417 8.53364 3.51487 7.45498 3.71435 6.68363C3.8147 6.29563 3.91892 5.97905 3.99961 5.75589C4.04001 5.64414 4.07468 5.55535 4.10025 5.49222C4.11304 5.46064 4.12358 5.43544 4.13144 5.41695L4.14118 5.39429L4.14445 5.38681L4.14567 5.38404L4.14618 5.3829C4.14618 5.3829 4.14661 5.38193 5.06042 5.78806L4.14661 5.38193C4.29292 5.05272 4.605 4.82766 4.96356 4.79277C5.32212 4.75787 5.67173 4.91854 5.87878 5.21335C6.57227 6.20085 7.49921 7.00151 8.57706 7.54402C9.36485 7.94054 10.2154 8.19016 11.0871 8.28359C11.126 7.45803 11.3919 6.65722 11.8581 5.97051C12.3753 5.20859 13.1141 4.6239 13.9745 4.29552ZM5.51014 7.82001C5.41148 8.35646 5.34663 8.98226 5.3767 9.64375C5.41944 10.5841 5.65252 11.5757 6.23439 12.4944C6.81224 13.4068 7.77206 14.3079 9.36765 15.0171C9.69946 15.1646 9.92525 15.4803 9.95755 15.842C9.98985 16.2036 9.82357 16.5544 9.52314 16.7583C8.86452 17.2054 8.15938 17.5701 7.42343 17.8481C9.58192 18.2258 11.7017 17.8888 13.4656 16.9499C16.1456 15.5235 18.1044 12.6552 18.1044 8.51883C18.1044 8.36895 18.0892 8.21456 18.0595 8.0577C18.0007 7.74778 18.0917 7.4294 18.3028 7.19776C17.9878 7.22556 17.6731 7.10246 17.4604 6.85782C17.1249 6.4721 16.6791 6.19871 16.1832 6.07463C15.6873 5.95055 15.1652 5.98176 14.6876 6.16404C14.21 6.34633 13.8 6.67089 13.5129 7.09383C13.2257 7.51677 13.0754 8.01769 13.0823 8.52883L13.0825 8.54224L13.0824 9.32246C13.0824 9.86464 12.6503 10.3081 12.1083 10.3221C10.5723 10.3619 9.05033 10.0213 7.67787 9.33049C6.88428 8.93105 6.15493 8.4217 5.51014 7.82001Z"></path></svg>