<svg xmlns="http://www.w3.org/2000/svg"><title>Icons/Social-Media/Youtube</title><path fill-rule="evenodd" clip-rule="evenodd" d="M19.649 7.71365L19.6494 7.71492C19.7982 8.27377 19.8978 9.29242 19.9504 10.3144C19.9752 10.7955 19.9876 11.2321 19.9939 11.5485C19.997 11.7063 19.9985 11.8331 19.9993 11.9193L19.9999 12.0167L20 12.0401L20 12.045V12.0451V12.0452V12.0457V12.0458V12.0459L20 12.0508L19.9999 12.0742L19.9993 12.1716C19.9985 12.2578 19.997 12.3846 19.9939 12.5424C19.9876 12.8588 19.9752 13.2953 19.9504 13.7765C19.8978 14.7984 19.7982 15.8172 19.6494 16.3762L19.6491 16.3773C19.6014 16.5567 19.4592 16.6946 19.2941 16.7391L19.2932 16.7393C19.1123 16.7881 18.6097 16.8586 17.7885 16.9188C17.0239 16.975 16.1282 17.0133 15.2623 17.0392C14.3996 17.065 13.5825 17.078 12.9801 17.0845C12.6793 17.0877 12.4329 17.0893 12.2623 17.0901L12.0662 17.0908L12.0158 17.0909L12.0035 17.0909H12.0006H12.0001H12H12H12H11.9999H11.9994H11.9965L11.9842 17.0909L11.9338 17.0908L11.7377 17.0901C11.5671 17.0893 11.3207 17.0877 11.0199 17.0845C10.4175 17.078 9.6004 17.065 8.7377 17.0392C7.87178 17.0133 6.97605 16.975 6.21146 16.9188C5.39032 16.8586 4.88774 16.7881 4.70685 16.7393L4.70594 16.7391C4.54083 16.6946 4.39857 16.5566 4.35095 16.3773L4.35064 16.3762C4.20183 15.8172 4.1022 14.7984 4.0496 13.7765C4.02483 13.2953 4.01237 12.8588 4.00614 12.5424C4.00304 12.3846 4.0015 12.2578 4.00074 12.1716L4.00008 12.0742L4.00001 12.0508L4 12.0458L4 12.0458V12.0457V12.0452V12.0451L4 12.0451L4.00001 12.0401L4.00008 12.0167L4.00074 11.9193C4.0015 11.8331 4.00304 11.7063 4.00614 11.5485C4.01237 11.2321 4.02483 10.7955 4.0496 10.3144C4.1022 9.29242 4.20183 8.27377 4.35062 7.71492L4.35096 7.71365C4.39861 7.5342 4.54085 7.39636 4.7057 7.35202L4.70698 7.35167C4.88783 7.30289 5.39036 7.2324 6.2115 7.1721C6.97608 7.11596 7.8718 7.07759 8.73772 7.05169C9.60042 7.02589 10.4175 7.01294 11.0199 7.00646C11.3207 7.00322 11.5671 7.0016 11.7377 7.0008L11.9338 7.0001L11.9842 7.00001L11.9965 7L11.9994 7H11.9999H12H12H12.0001H12.0006L12.0035 7L12.0158 7.00001L12.0662 7.0001L12.2623 7.0008C12.4329 7.0016 12.6793 7.00322 12.9801 7.00646C13.5825 7.01294 14.3996 7.02589 15.2623 7.05169C16.1282 7.07759 17.0239 7.11596 17.7885 7.1721C18.6096 7.2324 19.1122 7.30289 19.293 7.35167L19.2944 7.35203C19.4592 7.39637 19.6014 7.5341 19.649 7.71365ZM21.582 16.8907C22 15.3207 22 12.0455 22 12.0455C22 12.0455 22 8.77011 21.582 7.20034C21.352 6.3342 20.6744 5.65216 19.8139 5.42068C18.2542 5 12 5 12 5C12 5 5.7458 5 4.18614 5.42068C3.32568 5.65216 2.64795 6.3342 2.41795 7.20034C2 8.77011 2 12.0455 2 12.0455C2 12.0455 2 15.3207 2.41795 16.8907C2.64795 17.7567 3.32568 18.4388 4.18614 18.6703C5.7458 19.0909 12 19.0909 12 19.0909C12 19.0909 18.2542 19.0909 19.8139 18.6703C20.6744 18.4388 21.352 17.7567 21.582 16.8907ZM10.7018 14.5939C10.3685 14.7835 9.95459 14.5428 9.95459 14.1593V9.93118C9.95459 9.54769 10.3685 9.30696 10.7018 9.49659L14.4179 11.6107C14.7549 11.8025 14.7549 12.2882 14.4179 12.4799L10.7018 14.5939Z"></path></svg>